<?xml version="1.0" standalone="no"?>
<!DOCTYPE svg PUBLIC "-//W3C//DTD SVG 20010904//EN"
 "http://www.w3.org/TR/2001/REC-SVG-20010904/DTD/svg10.dtd">
<svg version="1.0" xmlns="http://www.w3.org/2000/svg"
 width="1080.000000pt" height="720.000000pt" viewBox="0 0 1080.000000 720.000000"
 preserveAspectRatio="xMidYMid meet">

<g transform="translate(0.000000,720.000000) scale(0.100000,-0.100000)"
fill="#000000" stroke="none">
<path d="M2730 3970 l0 -780 135 0 135 0 2 323 3 322 338 3 337 2 0 120 0 120
-337 2 -338 3 -3 204 c-1 113 2 209 6 213 5 5 173 10 373 11 l364 2 0 115 0
115 -507 3 -508 2 0 -780z"/>
<path d="M5188 4448 l-3 -153 -82 -3 -83 -3 0 -99 0 -99 83 -3 82 -3 5 -320 5
-320 30 -59 c40 -79 111 -141 183 -162 31 -9 67 -20 80 -25 13 -5 79 -9 147
-9 l125 0 0 105 0 105 -95 0 c-76 0 -104 4 -141 21 -78 37 -79 42 -79 374 l0
290 153 3 152 3 2 84 c0 47 1 91 2 98 1 9 -39 13 -154 17 l-155 5 -3 153 -3
152 -124 0 -124 0 -3 -152z"/>
<path d="M4285 4314 c-153 -37 -231 -72 -287 -131 -47 -48 -84 -131 -93 -205
l-6 -58 118 0 119 0 13 50 c10 38 23 59 54 85 53 46 102 58 208 53 75 -4 92
-8 122 -31 66 -50 82 -83 86 -174 l3 -83 -210 0 c-275 0 -347 -17 -441 -105
-74 -69 -94 -125 -89 -244 4 -104 15 -135 70 -197 115 -130 369 -129 588 3 30
18 61 33 68 33 8 0 12 -19 12 -60 l0 -61 123 3 122 3 0 400 c0 372 -1 403 -19
450 -70 178 -203 261 -436 270 -58 2 -114 2 -125 -1z m335 -734 c0 -58 -3 -72
-17 -78 -10 -4 -48 -24 -85 -45 -160 -91 -285 -113 -347 -61 -82 68 -51 213
52 243 18 5 114 10 215 10 l182 1 0 -70z"/>
<path d="M6235 4291 c-166 -48 -276 -156 -311 -309 -20 -85 -16 -486 6 -541
51 -133 186 -235 341 -261 315 -51 583 84 606 305 l6 55 -116 0 -116 0 -11
-39 c-23 -85 -106 -131 -235 -131 -116 0 -178 29 -233 107 -29 41 -44 169 -21
184 8 5 172 9 369 8 l355 0 3 128 c4 170 -8 231 -64 315 -57 85 -123 133 -231
170 -72 24 -99 28 -186 27 -63 -1 -125 -8 -162 -18z m259 -192 c48 -13 122
-80 136 -124 21 -63 28 -134 15 -145 -8 -7 -102 -9 -256 -8 l-244 3 1 60 c1
100 57 177 153 211 44 16 143 18 195 3z"/>
<path d="M7477 4304 c-3 -3 -24 -10 -48 -15 -121 -28 -229 -116 -276 -227
l-28 -67 0 -260 0 -260 39 -78 c30 -61 51 -87 94 -122 109 -86 276 -121 451
-96 216 32 344 158 365 362 7 69 8 69 -123 69 -107 0 -121 -6 -121 -54 0 -45
-36 -108 -76 -134 -85 -55 -241 -52 -313 6 -66 54 -76 86 -79 278 -5 202 5
264 50 318 42 52 103 76 188 76 134 0 230 -75 230 -180 0 -16 5 -32 10 -35 20
-13 229 -11 234 2 3 6 1 38 -4 70 -33 233 -198 353 -484 353 -57 0 -105 -3
-109 -6z"/>
<path d="M2727 2863 c-11 -10 -8 -316 3 -333 13 -21 19 0 22 80 l3 65 70 3
c101 4 106 26 7 32 l-77 5 0 60 0 60 83 3 c64 2 82 6 82 17 0 12 -18 15 -93
15 -52 0 -97 -3 -100 -7z"/>
<path d="M3780 2701 c0 -154 8 -207 24 -165 3 8 6 87 5 175 0 130 -3 159 -15
159 -12 0 -14 -30 -14 -169z"/>
<path d="M4060 2805 c0 -55 -3 -65 -17 -65 -10 0 -27 7 -37 15 -27 21 -59 19
-89 -5 -19 -15 -27 -33 -32 -73 -9 -68 4 -116 38 -141 27 -20 29 -20 79 -2 39
14 52 15 58 6 4 -7 13 -9 19 -6 7 5 11 62 11 172 0 139 -2 164 -15 164 -12 0
-15 -14 -15 -65z m-24 -90 c20 -13 24 -24 24 -69 0 -51 -2 -56 -34 -75 -40
-25 -73 -27 -98 -4 -25 22 -26 134 -1 158 19 20 71 15 109 -10z"/>
<path d="M4610 2810 c0 -70 -15 -83 -60 -56 -40 23 -62 20 -93 -12 -24 -25
-27 -36 -27 -95 0 -108 42 -146 124 -112 27 12 42 13 49 6 6 -6 15 -11 19 -11
4 0 8 77 8 170 0 107 -4 170 -10 170 -6 0 -10 -27 -10 -60z m-24 -95 c20 -13
24 -24 24 -63 0 -59 -28 -91 -88 -99 -35 -5 -42 -2 -57 21 -24 36 -17 133 11
153 22 17 75 11 110 -12z"/>
<path d="M5290 2806 c0 -57 -2 -66 -18 -66 -10 0 -27 7 -38 15 -27 20 -65 18
-94 -6 -20 -17 -25 -32 -28 -85 -8 -115 36 -163 119 -130 29 12 45 14 52 7 6
-6 17 -11 24 -11 19 0 14 331 -4 338 -10 3 -13 -14 -13 -62z m-51 -77 c39 -14
51 -35 51 -93 0 -40 -4 -47 -34 -65 -43 -27 -92 -28 -106 -2 -5 11 -10 49 -10
85 0 84 23 101 99 75z"/>
<path d="M5790 2855 c0 -11 12 -15 50 -15 l49 0 3 -157 c2 -97 7 -158 13 -158
6 0 11 61 13 158 l3 157 49 0 c38 0 50 4 50 15 0 12 -19 15 -115 15 -96 0
-115 -3 -115 -15z"/>
<path d="M7120 2700 c0 -144 2 -170 15 -170 13 0 15 26 15 170 0 144 -2 170
-15 170 -13 0 -15 -26 -15 -170z"/>
<path d="M7775 2860 c-7 -12 2 -30 16 -30 5 0 9 9 9 20 0 21 -15 27 -25 10z"/>
<path d="M3006 2745 c-14 -13 -26 -32 -26 -41 0 -14 7 -11 33 14 47 46 97 41
124 -13 17 -34 5 -45 -50 -45 -69 0 -117 -28 -117 -68 0 -59 70 -83 138 -48
26 14 31 14 36 1 3 -8 10 -15 16 -15 6 0 10 35 10 91 0 87 -1 92 -29 120 -39
38 -96 40 -135 4z m136 -123 c11 -11 8 -18 -15 -38 -33 -28 -68 -39 -102 -30
-31 8 -34 48 -5 69 25 18 104 17 122 -1z"/>
<path d="M3269 2739 c-25 -27 -29 -39 -29 -91 0 -70 10 -92 52 -114 55 -28
138 5 138 56 0 29 -17 25 -32 -7 -11 -23 -21 -29 -54 -31 -59 -4 -76 18 -72
98 3 55 6 65 30 83 23 17 33 19 55 11 16 -5 32 -19 38 -32 12 -27 35 -29 35
-3 0 28 -51 61 -95 61 -28 0 -44 -7 -66 -31z"/>
<path d="M3507 2763 c-9 -8 -9 -140 -1 -183 5 -23 16 -36 40 -47 30 -15 35
-15 74 5 34 16 42 18 47 6 3 -8 12 -14 19 -14 12 0 14 21 12 115 -4 136 -21
155 -28 30 -5 -81 -6 -86 -35 -105 -36 -24 -68 -25 -89 -4 -12 12 -16 37 -16
110 0 86 -5 106 -23 87z"/>
<path d="M4191 2739 c-17 -17 -28 -35 -25 -41 4 -5 20 4 38 21 46 45 96 39
123 -14 17 -34 5 -45 -50 -45 -103 0 -155 -69 -90 -120 29 -22 60 -21 111 6
24 12 27 12 30 -2 2 -8 9 -13 15 -11 8 2 13 35 15 89 3 82 2 86 -27 117 -41
44 -97 44 -140 0z m140 -121 c19 -33 -90 -85 -127 -60 -23 16 -23 41 1 60 32
25 112 25 126 0z"/>
<path d="M4754 2752 c-12 -10 -26 -27 -33 -39 -13 -26 -15 -102 -1 -137 10
-28 57 -56 92 -56 31 0 88 36 88 55 0 21 -13 19 -28 -5 -9 -16 -23 -20 -61
-20 -42 0 -51 4 -66 27 -29 43 -11 57 81 63 l79 5 -2 35 c-3 71 -97 116 -149
72z m107 -31 c46 -47 32 -62 -55 -59 -82 3 -94 18 -50 61 35 35 68 34 105 -2z"/>
<path d="M5435 2750 c-16 -11 -33 -27 -37 -37 -13 -33 -9 -128 7 -150 19 -27
76 -46 114 -38 37 8 78 50 60 61 -8 4 -18 -1 -27 -14 -11 -17 -24 -22 -58 -22
-50 0 -76 21 -72 59 3 25 5 26 86 29 l82 3 0 33 c0 25 -9 42 -32 65 -38 37
-78 40 -123 11z m102 -22 c13 -12 23 -32 23 -45 0 -22 -3 -23 -69 -23 -83 0
-97 16 -52 61 35 35 66 37 98 7z"/>
<path d="M6078 2741 c-27 -24 -32 -36 -35 -87 -5 -73 10 -104 60 -123 47 -18
112 -2 122 30 10 30 -3 36 -21 11 -12 -17 -25 -22 -58 -22 -50 0 -80 25 -74
62 3 22 8 23 86 26 90 3 93 6 71 70 -22 65 -97 82 -151 33z m95 -2 c28 -15 37
-28 37 -56 0 -22 -4 -23 -70 -23 -67 0 -70 1 -70 24 0 26 41 66 67 66 8 0 24
-5 36 -11z"/>
<path d="M6339 2741 c-26 -26 -29 -36 -29 -94 0 -74 21 -111 70 -122 58 -13
120 27 120 75 0 20 -19 9 -32 -17 -11 -23 -21 -29 -56 -31 -63 -5 -72 7 -72
94 0 72 1 74 31 90 25 13 36 13 60 4 15 -7 31 -21 34 -31 7 -21 35 -26 35 -6
-1 31 -52 67 -98 67 -24 0 -42 -9 -63 -29z"/>
<path d="M6580 2647 c0 -83 4 -126 10 -122 6 3 10 41 10 84 0 68 3 80 23 99
13 12 38 25 56 28 50 10 61 -11 61 -117 0 -87 13 -124 26 -73 4 14 4 63 1 107
-4 68 -9 85 -27 99 -27 22 -60 23 -86 3 -26 -19 -44 -19 -60 3 -11 14 -13 -2
-14 -111z"/>
<path d="M6888 2753 c-69 -43 -62 -190 9 -222 30 -14 52 -14 90 -1 39 14 53
46 53 121 0 55 -3 64 -31 90 -36 34 -79 38 -121 12z m103 -32 c24 -24 29 -38
29 -76 0 -67 -22 -95 -76 -95 -55 0 -74 24 -74 98 0 44 4 57 26 77 35 33 59
31 95 -4z"/>
<path d="M7259 2741 c-26 -26 -29 -36 -29 -94 0 -77 22 -113 76 -123 93 -17
151 76 113 185 -22 64 -110 81 -160 32z m100 -6 c35 -18 41 -32 41 -98 0 -62
-19 -87 -67 -87 -51 0 -70 15 -78 59 -10 60 3 109 34 126 33 18 36 18 70 0z"/>
<path d="M7536 2749 c-22 -17 -26 -28 -26 -69 0 -27 -4 -52 -10 -55 -5 -3 -10
-17 -10 -30 0 -13 5 -27 10 -30 6 -3 10 -17 10 -30 0 -85 92 -131 167 -85 43
26 53 65 24 93 -17 18 -37 23 -104 27 -74 4 -82 7 -82 25 0 18 8 20 65 23 80
4 110 26 110 83 0 24 5 39 15 43 38 14 10 26 -64 26 -64 0 -83 -4 -105 -21z
m112 -15 c49 -34 15 -94 -53 -94 -48 0 -65 13 -65 51 0 32 32 59 70 59 14 0
36 -7 48 -16z m16 -194 c37 -14 35 -55 -4 -75 -45 -23 -75 -19 -104 16 -14 17
-26 34 -26 38 0 29 80 42 134 21z"/>
<path d="M7787 2763 c-11 -10 -8 -231 3 -238 6 -4 10 38 10 119 0 69 -1 126
-3 126 -2 0 -7 -3 -10 -7z"/>
<path d="M7916 2749 c-25 -20 -36 -59 -16 -59 6 0 10 6 10 14 0 20 47 48 77
44 31 -4 68 -50 60 -72 -5 -12 -20 -16 -58 -16 -83 0 -126 -44 -103 -105 11
-29 49 -36 106 -19 36 11 53 13 56 5 2 -6 8 -11 13 -11 5 0 9 43 9 95 0 88 -2
98 -25 120 -31 32 -91 34 -129 4z m118 -115 c49 -19 -24 -88 -86 -82 -29 3
-33 7 -36 34 -2 24 2 33 20 42 26 12 78 15 102 6z"/>
</g>
</svg>
